HIERARCHY
ROOT SpineBase
{
  OFFSET 0.000000 0.000000 0.000000
  CHANNELS 6 Xposition Yposition Zposition Zrotation Xrotation Yrotation
  JOINT SpineMid
  {
    OFFSET -0.000000 28.086418 0.000000
    CHANNELS 3 Zrotation Xrotation Yrotation
    JOINT SpineShoulder
    {
      OFFSET 0.282599 20.932936 -0.505076
      CHANNELS 3 Zrotation Xrotation Yrotation
      JOINT Neck
      {
        OFFSET 0.182964 6.943478 -0.435060
        CHANNELS 3 Zrotation Xrotation Yrotation
        JOINT Head
        {
          OFFSET 2.669659 12.661561 1.817538
          CHANNELS 3 Zrotation Xrotation Yrotation
          End Site
          {
            OFFSET 0 0 0
          }
        }
      }
      JOINT ShoulderLeft
      {
        OFFSET -7.963124 -2.913684 -13.031974
        CHANNELS 3 Zrotation Xrotation Yrotation
        JOINT ElbowLeft
        {
          OFFSET -5.895971 -24.533244 -3.021937
          CHANNELS 3 Zrotation Xrotation Yrotation
          JOINT WristLeft
          {
            OFFSET 4.654965 -22.078256 -3.261217
            CHANNELS 3 Zrotation Xrotation Yrotation
            JOINT HandLeft
            {
              OFFSET 1.313345 -5.277544 0.247758
              CHANNELS 3 Zrotation Xrotation Yrotation
              JOINT HandTipLeft
              {
                OFFSET 0.414742 -5.278668 0.000869
                CHANNELS 3 Zrotation Xrotation Yrotation
                End Site
                {
                  OFFSET 0 0 0
                }
              }
              JOINT ThumbLeft
              {
                OFFSET 3.359694 0.976125 0.566675
                CHANNELS 3 Zrotation Xrotation Yrotation
                End Site
                {
                  OFFSET 0 0 0
                }
              }
            }
          }
        }
      }
      JOINT ShoulderRight
      {
        OFFSET 10.050780 -3.501004 5.787269
        CHANNELS 3 Zrotation Xrotation Yrotation
        JOINT ElbowRight
        {
          OFFSET -1.029967 -24.229327 15.547342
          CHANNELS 3 Zrotation Xrotation Yrotation
          JOINT WristRight
          {
            OFFSET 5.416670 -21.047712 -0.926232
            CHANNELS 3 Zrotation Xrotation Yrotation
            JOINT HandRight
            {
              OFFSET 0.879353 -1.107160 -1.667924
              CHANNELS 3 Zrotation Xrotation Yrotation
              JOINT HandTipRight
              {
                OFFSET 0.952364 -4.926544 -1.091553
                CHANNELS 3 Zrotation Xrotation Yrotation
                End Site
                {
                  OFFSET 0 0 0
                }
              }
              JOINT ThumbRight
              {
                OFFSET 0.649186 -2.181195 -4.249029
                CHANNELS 3 Zrotation Xrotation Yrotation
                End Site
                {
                  OFFSET 0 0 0
                }
              }
            }
          }
        }
      }
    }
  }
  JOINT HipLeft
  {
    OFFSET -3.329542 0.737727 -7.186315
    CHANNELS 3 Zrotation Xrotation Yrotation
    JOINT KneeLeft
    {
      OFFSET -4.233297 -29.957144 3.696515
      CHANNELS 3 Zrotation Xrotation Yrotation
      JOINT AnkleLeft
      {
        OFFSET -6.064505 -33.014792 1.776108
        CHANNELS 3 Zrotation Xrotation Yrotation
        JOINT FootLeft
        {
          OFFSET 4.456867 -7.857644 -2.551842
          CHANNELS 3 Zrotation Xrotation Yrotation
          End Site
          {
            OFFSET 0 0 0
          }
        }
      }
    }
  }
  JOINT HipRight
  {
    OFFSET 5.791427 0.200106 0.821188
    CHANNELS 3 Zrotation Xrotation Yrotation
    JOINT KneeRight
    {
      OFFSET -9.080071 -31.392577 3.838448
      CHANNELS 3 Zrotation Xrotation Yrotation
      JOINT AnkleRight
      {
        OFFSET -4.864360 -31.315408 5.135330
        CHANNELS 3 Zrotation Xrotation Yrotation
        JOINT FootRight
        {
          OFFSET -0.526421 -6.558242 -7.927706
          CHANNELS 3 Zrotation Xrotation Yrotation
          End Site
          {
            OFFSET 0 0 0
          }
        }
      }
    }
  }
}
MOTION
Frames: 7
Frame Time: 0.033333
-83.846542 74.072182 386.502678 1.251850 -4.678433 -42.465242 0.583403 0.013945 42.611625 0.060473 -0.224663 0.140192 -5.535828 11.714848 -0.410289 0.000000 0.000000 0.000000 4.321147 12.462689 -3.586258 -4.989729 -1.976530 3.186651 -3.992489 14.166312 3.997855 11.148703 -20.006170 -1.310015 0.000000 0.000000 0.000000 0.000000 0.000000 0.000000 5.618928 43.428893 -0.709252 -29.759883 -37.691806 -18.793893 -12.037346 -39.256110 -5.740613 20.444215 36.383615 -8.031190 0.000000 0.000000 0.000000 0.000000 0.000000 0.000000 -16.739959 -9.366940 39.785227 9.004340 -11.110272 2.857550 15.837289 26.767608 1.879674 0.000000 0.000000 0.000000 13.693502 25.154118 40.133364 -9.507570 5.491682 -1.916469 4.651127 -23.459082 -26.090718 0.000000 0.000000 0.000000
-80.846316 73.250743 385.067060 1.091085 -4.099034 -41.699398 0.345798 -0.278820 41.830124 -0.005234 -0.271629 0.112525 -4.048009 11.321052 -0.691052 0.000000 0.000000 0.000000 5.890682 12.485188 -3.942815 -5.710134 -1.647443 3.511403 0.833665 20.310071 5.384197 7.115048 -22.127039 -2.660192 0.000000 0.000000 0.000000 0.000000 0.000000 0.000000 6.108126 42.963700 -0.609807 -29.598719 -37.708324 -18.684469 -11.865137 -38.972642 -5.483896 20.270443 37.613921 -7.532365 0.000000 0.000000 0.000000 0.000000 0.000000 0.000000 -15.440474 -10.037500 39.120470 5.255326 -12.609601 2.425922 17.441837 34.826737 5.115649 0.000000 0.000000 0.000000 14.908067 24.656285 39.404256 -9.572008 6.178735 -2.175315 6.891132 -24.013853 -28.329667 0.000000 0.000000 0.000000
-77.264065 72.666743 383.851114 1.446166 -3.549083 -42.405366 0.464425 -0.047995 42.540103 -0.095481 -0.296062 0.126785 -4.498562 10.196034 -0.644343 0.000000 0.000000 0.000000 5.620084 11.700561 -3.884178 -5.659018 -1.027821 3.556455 5.297968 27.018515 6.420007 3.752271 -21.783456 -4.200640 0.000000 0.000000 0.000000 0.000000 0.000000 0.000000 5.504995 42.362350 -0.518400 -29.652316 -37.728147 -18.717396 -9.827356 -36.746184 -4.338228 18.154173 34.862235 -6.560631 0.000000 0.000000 0.000000 0.000000 0.000000 0.000000 -15.069729 -9.986971 39.772244 1.369267 -14.622052 1.949043 26.057618 39.787936 2.682270 0.000000 0.000000 0.000000 14.300500 23.911261 40.442433 -10.793003 6.281820 -2.388599 14.437369 -17.381460 -33.830276 0.000000 0.000000 0.000000
-73.429654 72.293168 382.599948 1.988823 -3.008541 -41.642226 0.492339 -0.166678 41.797129 -0.273676 -0.243305 0.132418 -4.168991 9.811049 -0.856474 0.000000 0.000000 0.000000 5.818777 11.034481 -3.907083 -6.149568 -0.789829 3.567717 8.954388 29.428892 6.315274 -0.611039 -19.345290 -6.204395 0.000000 0.000000 0.000000 0.000000 0.000000 0.000000 5.112101 41.884491 -0.450742 -29.583299 -37.745768 -18.668856 -9.553445 -36.282072 -3.632318 17.169390 32.687277 -6.704820 0.000000 0.000000 0.000000 0.000000 0.000000 0.000000 -13.406144 -6.349348 39.597843 -8.318361 -18.035552 0.291481 30.745023 43.608540 3.718116 0.000000 0.000000 0.000000 13.252088 22.239623 40.022209 -12.161480 4.403136 -2.006980 13.623783 -9.434746 -30.783453 0.000000 0.000000 0.000000
-69.512462 72.210222 381.275155 2.437718 -2.444307 -42.013004 0.677370 -0.079066 42.176364 -0.316444 -0.196488 0.146976 -4.444991 9.439670 -1.007346 0.000000 0.000000 0.000000 4.641007 9.899098 -3.526597 -5.124472 0.210533 3.430892 10.657562 28.592929 5.907111 -2.833365 -15.843356 -7.029175 0.000000 0.000000 0.000000 0.000000 0.000000 0.000000 4.435584 41.345864 -0.391775 -29.607273 -37.762180 -18.681052 -8.660757 -35.531819 -4.299713 11.579717 31.053206 -2.401119 0.000000 0.000000 0.000000 0.000000 0.000000 0.000000 -11.354105 -0.096833 40.610314 -20.163699 -22.815521 -2.826571 29.964390 42.173438 6.060935 0.000000 0.000000 0.000000 16.880087 19.009953 41.907693 -18.106708 10.301305 -4.297639 17.355734 -8.433020 -27.354268 0.000000 0.000000 0.000000
-65.438862 72.229690 380.090174 3.133646 -2.009860 -39.988344 0.711091 -0.076331 40.170902 -0.313759 -0.149601 0.167700 -5.125459 8.946797 -1.060786 0.000000 0.000000 0.000000 3.359484 8.694024 -3.149750 -4.633419 0.824095 3.203751 11.798303 24.022381 5.065466 -1.558454 -11.299005 -5.797121 0.000000 0.000000 0.000000 0.000000 0.000000 0.000000 3.631930 40.879866 -0.361977 -30.382407 -35.689088 -18.301226 -10.936186 -40.479482 -9.542874 10.539358 31.312972 -0.490855 0.000000 0.000000 0.000000 0.000000 0.000000 0.000000 -10.150653 6.999645 38.970556 -28.680758 -27.289611 -6.145166 27.519828 36.107738 5.176975 0.000000 0.000000 0.000000 17.036307 16.351925 40.586693 -22.467563 9.416911 -4.254189 17.522082 -8.722554 -21.842381 0.000000 0.000000 0.000000
-61.637040 72.295608 379.148712 3.735205 -1.913756 -40.050336 0.724025 0.037357 40.253007 -0.185403 -0.098219 0.194690 -6.244816 8.972125 -1.072822 0.000000 0.000000 0.000000 1.459827 7.403799 -2.603646 -2.497119 1.405204 2.640235 7.198963 18.681688 4.583708 1.614954 -7.893571 -4.089082 0.000000 0.000000 0.000000 0.000000 0.000000 0.000000 2.796246 40.664195 -0.381308 -30.926802 -36.485165 -18.986032 -12.358395 -41.959703 -12.544718 10.564638 31.314189 0.653984 0.000000 0.000000 0.000000 0.000000 0.000000 0.000000 -5.821013 14.566382 39.503056 -41.221149 -28.875731 -10.412378 25.383968 32.189255 5.725202 0.000000 0.000000 0.000000 12.894150 16.640289 39.979956 -23.887185 3.669506 -3.564729 17.954319 -0.672658 -19.458120 0.000000 0.000000 0.000000
